HIERARCHY
ROOT mixamorig:Hips
{
	OFFSET -0.000008 104.274872 1.554316
	CHANNELS 6 Xposition Yposition Zposition Xrotation Yrotation Zrotation
	JOINT mixamorig:Spine
	{
		OFFSET -0.000005 10.181595 0.131519
		CHANNELS 6 Xposition Yposition Zposition Xrotation Yrotation Zrotation
		JOINT mixamorig:Spine1
		{
			OFFSET -0.000000 9.893959 -1.470707
			CHANNELS 6 Xposition Yposition Zposition Xrotation Yrotation Zrotation
			JOINT mixamorig:Spine2
			{
				OFFSET -0.000000 9.220757 -1.370641
				CHANNELS 6 Xposition Yposition Zposition Xrotation Yrotation Zrotation
				JOINT mixamorig:Neck
				{
					OFFSET 0.000001 16.740417 -2.049036
					CHANNELS 6 Xposition Yposition Zposition Xrotation Yrotation Zrotation
					JOINT mixamorig:Head
					{
						OFFSET 0.000000 9.617874 1.685006
						CHANNELS 6 Xposition Yposition Zposition Xrotation Yrotation Zrotation
						JOINT mixamorig:HeadTop_End
						{
							OFFSET 0.000002 22.037354 7.501101
							CHANNELS 6 Xposition Yposition Zposition Xrotation Yrotation Zrotation
							End Site
							{
								OFFSET 0.000168 2310.654297 -282.823242
							}
						}
					}
				}
				JOINT mixamorig:RightShoulder
				{
					OFFSET -4.569970 11.014908 -2.160885
					CHANNELS 6 Xposition Yposition Zposition Xrotation Yrotation Zrotation
					JOINT mixamorig:RightArm
					{
						OFFSET -10.592851 -0.524811 -2.232101
						CHANNELS 6 Xposition Yposition Zposition Xrotation Yrotation Zrotation
						JOINT mixamorig:RightForeArm
						{
							OFFSET -27.841511 0.000031 -0.000004
							CHANNELS 6 Xposition Yposition Zposition Xrotation Yrotation Zrotation
							JOINT mixamorig:RightHand
							{
								OFFSET -28.328831 -0.000015 0.000015
								CHANNELS 6 Xposition Yposition Zposition Xrotation Yrotation Zrotation
								JOINT mixamorig:RightHandThumb1
								{
									OFFSET -2.464806 -1.573990 2.681852
									CHANNELS 6 Xposition Yposition Zposition Xrotation Yrotation Zrotation
									JOINT mixamorig:RightHandThumb2
									{
										OFFSET -3.215179 -1.872803 1.924282
										CHANNELS 6 Xposition Yposition Zposition Xrotation Yrotation Zrotation
										JOINT mixamorig:RightHandThumb3
										{
											OFFSET -2.654831 -1.527969 1.512609
											CHANNELS 6 Xposition Yposition Zposition Xrotation Yrotation Zrotation
											JOINT mixamorig:RightHandThumb4
											{
												OFFSET -2.018814 -1.152008 1.108052
												CHANNELS 6 Xposition Yposition Zposition Xrotation Yrotation Zrotation
												End Site
												{
													OFFSET -188.809540 -114.533607 132.431396
												}
											}
										}
									}
								}
								JOINT mixamorig:RightHandIndex1
								{
									OFFSET -9.108284 -0.517868 2.259835
									CHANNELS 6 Xposition Yposition Zposition Xrotation Yrotation Zrotation
									JOINT mixamorig:RightHandIndex2
									{
										OFFSET -3.699989 0.000000 0.001215
										CHANNELS 6 Xposition Yposition Zposition Xrotation Yrotation Zrotation
										JOINT mixamorig:RightHandIndex3
										{
											OFFSET -2.850006 0.000031 -0.000522
											CHANNELS 6 Xposition Yposition Zposition Xrotation Yrotation Zrotation
											JOINT mixamorig:RightHandIndex4
											{
												OFFSET -2.772186 -0.000015 -0.000020
												CHANNELS 6 Xposition Yposition Zposition Xrotation Yrotation Zrotation
												End Site
												{
													OFFSET -277.218445 0.000000 -0.050231
												}
											}
										}
									}
								}
								JOINT mixamorig:RightHandMiddle1
								{
									OFFSET -9.532516 -0.000031 -0.000023
									CHANNELS 6 Xposition Yposition Zposition Xrotation Yrotation Zrotation
									JOINT mixamorig:RightHandMiddle2
									{
										OFFSET -3.700005 -0.000015 0.003713
										CHANNELS 6 Xposition Yposition Zposition Xrotation Yrotation Zrotation
										JOINT mixamorig:RightHandMiddle3
										{
											OFFSET -2.949974 0.000015 -0.002054
											CHANNELS 6 Xposition Yposition Zposition Xrotation Yrotation Zrotation
											JOINT mixamorig:RightHandMiddle4
											{
												OFFSET -2.946640 0.000000 -0.000156
												CHANNELS 6 Xposition Yposition Zposition Xrotation Yrotation Zrotation
												End Site
												{
													OFFSET -294.664337 0.000000 -0.113670
												}
											}
										}
									}
								}
								JOINT mixamorig:RightHandRing1
								{
									OFFSET -9.103600 -0.043076 -1.865134
									CHANNELS 6 Xposition Yposition Zposition Xrotation Yrotation Zrotation
									JOINT mixamorig:RightHandRing2
									{
										OFFSET -3.379288 0.000000 -0.001055
										CHANNELS 6 Xposition Yposition Zposition Xrotation Yrotation Zrotation
										JOINT mixamorig:RightHandRing3
										{
											OFFSET -2.889687 -0.000015 0.000379
											CHANNELS 6 Xposition Yposition Zposition Xrotation Yrotation Zrotation
											JOINT mixamorig:RightHandRing4
											{
												OFFSET -2.638809 -0.000015 0.000941
												CHANNELS 6 Xposition Yposition Zposition Xrotation Yrotation Zrotation
												End Site
												{
													OFFSET -263.880371 0.000000 0.516020
												}
											}
										}
									}
								}
								JOINT mixamorig:RightHandPinky1
								{
									OFFSET -8.076683 -0.486710 -3.806280
									CHANNELS 6 Xposition Yposition Zposition Xrotation Yrotation Zrotation
									JOINT mixamorig:RightHandPinky2
									{
										OFFSET -3.600014 -0.000015 -0.003747
										CHANNELS 6 Xposition Yposition Zposition Xrotation Yrotation Zrotation
										JOINT mixamorig:RightHandPinky3
										{
											OFFSET -2.099983 0.000000 -0.005739
											CHANNELS 6 Xposition Yposition Zposition Xrotation Yrotation Zrotation
											JOINT mixamorig:RightHandPinky4
											{
												OFFSET -2.115768 -0.000031 -0.003680
												CHANNELS 6 Xposition Yposition Zposition Xrotation Yrotation Zrotation
												End Site
												{
													OFFSET -211.577087 0.000000 -0.350686
												}
											}
										}
									}
								}
							}
						}
					}
				}
				JOINT mixamorig:LeftShoulder
				{
					OFFSET 4.570447 11.014725 -2.160855
					CHANNELS 6 Xposition Yposition Zposition Xrotation Yrotation Zrotation
					JOINT mixamorig:LeftArm
					{
						OFFSET 10.592371 -0.524597 -2.232119
						CHANNELS 6 Xposition Yposition Zposition Xrotation Yrotation Zrotation
						JOINT mixamorig:LeftForeArm
						{
							OFFSET 27.841532 -0.000031 0.000026
							CHANNELS 6 Xposition Yposition Zposition Xrotation Yrotation Zrotation
							JOINT mixamorig:LeftHand
							{
								OFFSET 28.328846 -0.000061 0.000022
								CHANNELS 6 Xposition Yposition Zposition Xrotation Yrotation Zrotation
								JOINT mixamorig:LeftHandThumb1
								{
									OFFSET 2.466141 -1.576172 2.681732
									CHANNELS 6 Xposition Yposition Zposition Xrotation Yrotation Zrotation
									JOINT mixamorig:LeftHandThumb2
									{
										OFFSET 3.217812 -1.872070 1.916482
										CHANNELS 6 Xposition Yposition Zposition Xrotation Yrotation Zrotation
										JOINT mixamorig:LeftHandThumb3
										{
											OFFSET 2.656029 -1.528778 1.514513
											CHANNELS 6 Xposition Yposition Zposition Xrotation Yrotation Zrotation
											JOINT mixamorig:LeftHandThumb4
											{
												OFFSET 2.020889 -1.154053 1.115139
												CHANNELS 6 Xposition Yposition Zposition Xrotation Yrotation Zrotation
												End Site
												{
													OFFSET 190.885437 -115.081749 130.048782
												}
											}
										}
									}
								}
								JOINT mixamorig:LeftHandIndex1
								{
									OFFSET 9.109314 -0.518021 2.259871
									CHANNELS 6 Xposition Yposition Zposition Xrotation Yrotation Zrotation
									JOINT mixamorig:LeftHandIndex2
									{
										OFFSET 3.699989 0.000000 -0.000322
										CHANNELS 6 Xposition Yposition Zposition Xrotation Yrotation Zrotation
										JOINT mixamorig:LeftHandIndex3
										{
											OFFSET 2.850006 0.000000 0.000352
											CHANNELS 6 Xposition Yposition Zposition Xrotation Yrotation Zrotation
											JOINT mixamorig:LeftHandIndex4
											{
												OFFSET 2.774864 -0.000031 -0.000027
												CHANNELS 6 Xposition Yposition Zposition Xrotation Yrotation Zrotation
												End Site
												{
													OFFSET 277.486267 0.000000 -0.009857
												}
											}
										}
									}
								}
								JOINT mixamorig:LeftHandMiddle1
								{
									OFFSET 9.533394 0.000061 0.000044
									CHANNELS 6 Xposition Yposition Zposition Xrotation Yrotation Zrotation
									JOINT mixamorig:LeftHandMiddle2
									{
										OFFSET 3.699989 -0.000015 -0.000231
										CHANNELS 6 Xposition Yposition Zposition Xrotation Yrotation Zrotation
										JOINT mixamorig:LeftHandMiddle3
										{
											OFFSET 2.949997 -0.000015 -0.000059
											CHANNELS 6 Xposition Yposition Zposition Xrotation Yrotation Zrotation
											JOINT mixamorig:LeftHandMiddle4
											{
												OFFSET 2.952896 0.000031 0.000063
												CHANNELS 6 Xposition Yposition Zposition Xrotation Yrotation Zrotation
												End Site
												{
													OFFSET 295.289337 0.000000 0.022810
												}
											}
										}
									}
								}
								JOINT mixamorig:LeftHandRing1
								{
									OFFSET 9.104523 -0.042999 -1.865074
									CHANNELS 6 Xposition Yposition Zposition Xrotation Yrotation Zrotation
									JOINT mixamorig:LeftHandRing2
									{
										OFFSET 3.150009 -0.000031 0.000043
										CHANNELS 6 Xposition Yposition Zposition Xrotation Yrotation Zrotation
										JOINT mixamorig:LeftHandRing3
										{
											OFFSET 2.949982 -0.000015 0.000040
											CHANNELS 6 Xposition Yposition Zposition Xrotation Yrotation Zrotation
											JOINT mixamorig:LeftHandRing4
											{
												OFFSET 2.644348 0.000000 0.000057
												CHANNELS 6 Xposition Yposition Zposition Xrotation Yrotation Zrotation
												End Site
												{
													OFFSET 264.434631 0.000000 0.012105
												}
											}
										}
									}
								}
								JOINT mixamorig:LeftHandPinky1
								{
									OFFSET 8.077789 -0.486847 -3.806259
									CHANNELS 6 Xposition Yposition Zposition Xrotation Yrotation Zrotation
									JOINT mixamorig:LeftHandPinky2
									{
										OFFSET 3.599953 0.000031 0.014727
										CHANNELS 6 Xposition Yposition Zposition Xrotation Yrotation Zrotation
										JOINT mixamorig:LeftHandPinky3
										{
											OFFSET 2.100021 0.000015 0.007705
											CHANNELS 6 Xposition Yposition Zposition Xrotation Yrotation Zrotation
											JOINT mixamorig:LeftHandPinky4
											{
												OFFSET 2.125504 0.000031 0.007517
												CHANNELS 6 Xposition Yposition Zposition Xrotation Yrotation Zrotation
												End Site
												{
													OFFSET 212.550781 0.000000 0.625752
												}
											}
										}
									}
								}
							}
						}
					}
				}
			}
		}
	}
	JOINT mixamorig:RightUpLeg
	{
		OFFSET -8.207787 -6.751648 -1.599560
		CHANNELS 6 Xposition Yposition Zposition Xrotation Yrotation Zrotation
		JOINT mixamorig:RightLeg
		{
			OFFSET -0.000002 -44.370117 0.345942
			CHANNELS 6 Xposition Yposition Zposition Xrotation Yrotation Zrotation
			JOINT mixamorig:RightFoot
			{
				OFFSET 0.000003 -44.423679 -3.043532
				CHANNELS 6 Xposition Yposition Zposition Xrotation Yrotation Zrotation
				JOINT mixamorig:RightToeBase
				{
					OFFSET -0.000002 -8.728671 10.710558
					CHANNELS 6 Xposition Yposition Zposition Xrotation Yrotation Zrotation
					JOINT mixamorig:RightToe_End
					{
						OFFSET -0.000001 -0.000679 9.278119
						CHANNELS 6 Xposition Yposition Zposition Xrotation Yrotation Zrotation
						End Site
						{
							OFFSET 0.000000 -0.067690 927.812134
						}
					}
				}
			}
		}
	}
	JOINT mixamorig:LeftUpLeg
	{
		OFFSET 8.207793 -6.751686 -1.599556
		CHANNELS 6 Xposition Yposition Zposition Xrotation Yrotation Zrotation
		JOINT mixamorig:LeftLeg
		{
			OFFSET -0.000004 -44.370014 0.346954
			CHANNELS 6 Xposition Yposition Zposition Xrotation Yrotation Zrotation
			JOINT mixamorig:LeftFoot
			{
				OFFSET -0.000001 -44.423672 -3.044401
				CHANNELS 6 Xposition Yposition Zposition Xrotation Yrotation Zrotation
				JOINT mixamorig:LeftToeBase
				{
					OFFSET -0.000002 -8.728669 10.710558
					CHANNELS 6 Xposition Yposition Zposition Xrotation Yrotation Zrotation
					JOINT mixamorig:LeftToe_End
					{
						OFFSET -0.000003 -0.000679 9.278133
						CHANNELS 6 Xposition Yposition Zposition Xrotation Yrotation Zrotation
						End Site
						{
							OFFSET 0.000000 -0.068021 927.813477
						}
					}
				}
			}
		}
	}
}
MOTION
Frames: 3
Frame Time: 0.033333
0.000006 104.270477 1.554256 0.000010 0.000003 -0.000113 -0.000005 10.181587 0.131522 0.000001 -0.000003 0.000084 -0.000000 9.893967 -1.470711 0.000001 0.000000 -0.000000 -0.000000 9.220802 -1.370642 0.000000 -0.000000 -0.000000 0.000001 16.740433 -2.049030 0.000000 -0.000000 -0.000000 0.000000 9.617859 1.685014 0.000000 0.000000 0.000000 0.000002 22.037384 7.501101 0.000000 -0.000000 0.000000 -4.569968 11.014880 -2.160881 0.000008 0.000001 -0.000038 -10.592815 -0.524827 -2.231783 54.650382 61.572427 -34.221317 -27.841490 0.000006 0.000569 167.369551 77.062736 -164.176055 -28.328833 0.000008 0.000024 -0.000321 -0.000044 0.000005 -2.464864 -1.573729 2.682279 -6.578089 -237.374400 248.842315 -3.215161 -1.872754 1.924827 152.975200 17.077840 281.293336 -2.654920 -1.527915 1.513151 141.558744 25.885594 -74.226671 -2.018827 -1.151999 1.108054 -0.000004 -0.000003 0.000002 -9.108392 -0.517580 2.260098 93.221652 18.411412 -19.507290 -3.700109 0.000284 0.001516 93.055774 20.718689 -21.800951 -2.850100 0.000333 -0.000257 94.340670 16.258012 -17.518617 -2.772166 -0.000016 -0.000010 -0.000000 0.000001 0.000001 -9.532595 0.000259 0.000244 94.843515 16.123775 -17.681261 -3.700082 0.000290 0.004001 96.673507 16.790616 -18.723275 -2.950065 0.000343 -0.001786 95.592780 12.859563 -14.159589 -2.946636 -0.000000 -0.000161 -0.000001 0.000004 0.000001 -9.103686 -0.042755 -1.864882 95.376782 13.994498 -15.310318 -3.379350 0.000324 -0.000774 97.112627 11.468636 -12.996481 -2.889771 0.000361 0.000650 96.323262 7.314562 -8.218232 -2.638810 -0.000000 0.000929 -0.000000 0.000003 0.000000 -8.076731 -0.486372 -3.805999 96.610833 11.445909 -12.678695 -3.600037 0.000297 -0.003474 96.495950 6.595985 -6.999806 -2.100007 0.000327 -0.005468 95.100446 4.063704 -4.207901 -2.115767 -0.000056 -0.003674 -0.000000 -0.000003 -0.000003 4.570446 11.014691 -2.160851 -0.000018 0.000010 -0.000021 10.592479 -0.524527 -2.232392 58.464015 -47.990098 27.975348 27.841820 0.000002 -0.000179 -30.150873 -98.510808 -34.725529 28.328835 -0.000026 0.000022 0.000019 -0.000090 0.000002 2.466135 -1.575886 2.681942 68.374633 225.552394 -179.594319 3.217547 -1.871767 1.916650 -36.062876 235.943530 -314.720555 2.655930 -1.528783 1.514694 138.229519 -23.519869 138.376054 2.020891 -1.154070 1.115152 0.000003 0.000004 0.000002 9.109411 -0.517866 2.259753 90.486244 -24.803132 24.994526 3.700086 0.000140 -0.000437 91.429233 -24.345803 24.960867 2.850074 0.000193 0.000214 87.943829 -18.836231 18.182052 2.774873 -0.000046 -0.000028 -0.000000 -0.000001 -0.000000 9.533501 0.000206 -0.000068 92.027189 -24.581164 25.428504 3.700081 0.000142 -0.000350 94.476058 -21.766404 23.486338 2.950070 0.000186 -0.000196 93.153624 -15.858203 16.746813 2.952859 -0.000028 0.000069 0.000000 0.000001 -0.000001 9.104607 -0.042848 -1.865220 -85.817891 -158.573073 -156.988743 3.150074 0.000195 -0.000084 94.899017 -16.537626 17.994625 2.950012 0.000198 -0.000081 94.040094 -9.529090 10.224135 2.644335 0.000029 0.000056 -0.000002 0.000000 0.000002 8.077860 -0.486678 -3.806404 96.241388 -18.607612 -338.627774 3.600022 0.000228 0.014551 96.111478 -12.782602 -345.227376 2.100039 0.000235 0.007529 96.296542 -7.592279 8.982616 2.125510 -0.000014 0.007509 -0.000001 0.000002 0.000000 -8.207786 -6.751667 -1.599560 -0.077001 -0.000003 0.000080 -0.000002 -44.370110 0.345938 0.153719 -0.000000 -0.000000 0.000000 -44.423679 -3.043532 -0.076700 0.000000 -0.000002 -0.000006 -8.728667 10.710559 -0.000009 -0.000000 -0.000000 -0.000001 -0.000679 9.278123 0.000000 -0.000000 -0.000000 8.207792 -6.751710 -1.599556 -0.074518 -0.000003 0.000081 -0.000002 -44.370014 0.346960 0.148822 0.000002 0.000000 -0.000001 -44.423664 -3.044403 -0.074314 0.000000 -0.000002 -0.000004 -8.728671 10.710558 0.000007 -0.000000 -0.000000 0.000000 -0.000680 9.278137 -0.000000 0.000000 -0.000001 
0.000006 104.270477 1.554256 0.000010 0.000003 -0.000113 -0.000005 10.181587 0.131522 0.000001 -0.000003 0.000084 -0.000000 9.893967 -1.470711 0.000001 0.000000 -0.000000 -0.000000 9.220802 -1.370642 0.000000 -0.000000 -0.000000 0.000001 16.740433 -2.049030 0.000000 -0.000000 -0.000000 0.000000 9.617859 1.685014 0.000000 0.000000 0.000000 0.000002 22.037384 7.501101 0.000000 -0.000000 0.000000 -4.569968 11.014880 -2.160881 0.000008 0.000001 -0.000038 -10.592812 -0.524827 -2.231770 50.635911 63.434392 -32.595428 -27.841484 0.000007 0.000593 195.455466 76.548833 -199.516724 -28.328835 0.000037 0.000029 -0.000321 -0.000044 0.000006 -2.464877 -1.573789 2.682334 17.136226 -225.766412 223.799153 -3.215120 -1.872463 1.924743 86.327540 23.101489 253.522825 -2.654845 -1.527690 1.512962 76.246850 12.899341 -74.214541 -2.018826 -1.152003 1.108062 -0.000002 -0.000005 -0.000001 -9.108442 -0.517849 2.260211 115.706000 68.797511 -72.410578 -3.700096 0.000185 0.001662 95.869020 48.038022 -69.687696 -2.850160 0.000045 -0.000164 111.885595 70.059914 -57.790354 -2.772152 0.000001 -0.000021 0.000000 -0.000000 0.000001 -9.532661 -0.000010 0.000370 121.995662 61.300333 -74.473173 -3.699977 0.000413 0.003964 67.615608 -11.758645 -53.043669 -2.949930 0.000374 -0.001887 66.481189 -16.388508 -37.706046 -2.946622 0.000015 -0.000154 0.000001 0.000002 0.000002 -9.103536 -0.042654 -1.864881 67.430728 -8.671245 -61.673316 -3.379195 0.000364 -0.000875 54.136493 -13.010289 -53.436658 -2.889621 0.000370 0.000435 51.674097 -18.872579 -27.521547 -2.638814 -0.000015 0.000937 -0.000001 -0.000000 0.000002 -8.076607 -0.486299 -3.806008 68.492324 -4.632824 -61.687830 -3.599765 0.000163 -0.003753 48.424224 -39.495586 18.210917 -2.099879 0.000298 -0.005691 42.667382 -17.517057 -20.383781 -2.115769 -0.000055 -0.003678 -0.000000 -0.000000 -0.000003 4.570446 11.014691 -2.160851 -0.000018 0.000010 -0.000021 10.592473 -0.524534 -2.232384 56.105325 -47.903825 26.636112 27.841776 -0.000027 -0.000138 32.437426 -94.326593 34.835392 28.328840 -0.000028 0.000028 0.000021 -0.000090 -0.000000 2.466231 -1.576110 2.681735 -87.373638 223.026085 -118.933196 3.217852 -1.871916 1.916396 -55.167055 210.822996 -138.359456 2.656089 -1.528630 1.514435 134.201565 -29.322412 40.533665 2.020892 -1.154074 1.115148 0.000004 0.000000 -0.000001 9.109381 -0.517806 2.259714 98.968212 -13.166212 15.368076 3.700063 0.000172 -0.000465 92.732467 -16.259834 17.061268 2.850080 0.000208 0.000204 90.651363 -13.749347 13.903688 2.774886 -0.000026 -0.000030 -0.000006 0.000001 0.000000 9.533473 0.000251 -0.000104 98.570080 -11.883420 13.781362 3.700072 0.000187 -0.000376 92.004349 -14.739902 15.255851 2.950049 0.000178 -0.000203 90.937029 -10.539728 10.715441 2.952879 -0.000014 0.000075 0.000002 0.000003 0.000001 9.104583 -0.042790 -1.865224 -81.769003 -169.223988 -167.563105 3.150040 0.000219 -0.000106 91.328768 -7.983893 8.172367 2.950003 0.000198 -0.000111 88.485640 -4.887462 4.761675 2.644326 0.000034 0.000059 -0.000002 0.000002 0.000003 8.077826 -0.486649 -3.806428 96.413735 -8.319687 -350.098175 3.599974 0.000259 0.014544 94.212276 -2.079961 -357.288917 2.100001 0.000246 0.007505 92.165248 -0.452499 0.895507 2.125491 -0.000031 0.007527 -0.000001 0.000001 -0.000001 -8.207786 -6.751667 -1.599560 -0.077001 -0.000003 0.000080 -0.000002 -44.370110 0.345938 0.153719 -0.000000 -0.000000 0.000000 -44.423679 -3.043532 -0.076700 0.000000 -0.000002 -0.000006 -8.728667 10.710559 -0.000009 -0.000000 -0.000000 -0.000001 -0.000679 9.278123 0.000000 -0.000000 -0.000000 8.207792 -6.751710 -1.599556 -0.074518 -0.000003 0.000081 -0.000002 -44.370014 0.346960 0.148822 0.000002 0.000000 -0.000001 -44.423664 -3.044403 -0.074314 0.000000 -0.000002 -0.000004 -8.728671 10.710558 0.000007 -0.000000 -0.000000 0.000000 -0.000680 9.278137 -0.000000 0.000000 -0.000001 
0.000006 104.270477 1.554256 0.000010 0.000003 -0.000113 -0.000005 10.181587 0.131522 0.000001 -0.000003 0.000084 -0.000000 9.893967 -1.470711 0.000001 0.000000 -0.000000 -0.000000 9.220802 -1.370642 0.000000 -0.000000 -0.000000 0.000001 16.740433 -2.049030 0.000000 -0.000000 -0.000000 0.000000 9.617859 1.685014 0.000000 0.000000 0.000000 0.000002 22.037384 7.501101 0.000000 -0.000000 0.000000 -4.569968 11.014880 -2.160881 0.000008 0.000001 -0.000038 -10.592801 -0.524825 -2.231764 45.682047 66.147513 -30.678413 -27.841476 0.000010 0.000595 213.486852 75.394135 -222.540267 -28.328836 0.000020 0.000028 -0.000321 -0.000044 0.000007 -2.464876 -1.574019 2.682353 51.442926 -199.310944 186.792833 -3.215258 -1.872700 1.924369 -48.575083 39.344174 295.532641 -2.654949 -1.527970 1.512693 -30.547891 29.033956 -58.183813 -2.018820 -1.151978 1.108063 -0.000003 -0.000004 0.000002 -9.108356 -0.517898 2.260341 71.077230 116.938262 -92.616081 -3.700078 0.000069 0.001706 71.463655 105.494997 -104.004288 -2.850093 -0.000085 -0.000108 98.460046 123.119351 -108.541063 -2.772162 -0.000001 -0.000019 0.000001 0.000000 -0.000000 -9.532560 -0.000062 0.000485 50.438205 113.789743 -70.061103 -3.700131 0.000176 0.003875 -9.616811 45.683058 -58.955065 -2.950115 0.000102 -0.001987 -12.919305 22.187415 -47.615639 -2.946641 0.000018 -0.000158 0.000002 0.000004 -0.000003 -9.103727 -0.042778 -1.864841 17.571727 65.927670 -92.670238 -3.379429 0.000074 -0.000884 -32.230990 42.578928 -46.474072 -2.889791 -0.000007 0.000440 -32.639346 8.997762 -30.126199 -2.638810 0.000000 0.000948 0.000003 -0.000001 0.000000 -8.076778 -0.486417 -3.805950 46.244288 70.513179 -118.235479 -3.599872 -0.000301 -0.003517 -70.826145 -26.364479 -10.626738 -2.100008 -0.000098 -0.005679 -41.528459 2.965482 -21.711937 -2.115767 -0.000040 -0.003677 -0.000001 0.000001 -0.000001 4.570446 11.014691 -2.160851 -0.000018 0.000010 -0.000021 10.592495 -0.524553 -2.232374 51.349840 -61.032521 31.640735 27.841747 -0.000076 -0.000111 61.451103 -101.401548 71.973330 28.328833 -0.000029 0.000015 0.000019 -0.000087 -0.000000 2.466116 -1.576110 2.681941 -162.137066 259.314252 -124.740346 3.217806 -1.871737 1.916595 -157.056389 205.016884 -88.925095 2.656077 -1.528499 1.514618 15.063144 -23.486008 88.732845 2.020894 -1.154050 1.115152 -0.000000 0.000003 0.000008 9.109446 -0.517845 2.259854 23.432683 3.459569 61.820780 3.699963 -0.000042 -0.000343 41.834168 -80.344034 8.512517 2.849960 0.000001 0.000325 14.540672 -72.256885 -24.820293 2.774893 -0.000016 -0.000027 0.000002 -0.000000 0.000001 9.533527 0.000261 0.000081 23.116529 -7.377738 71.142991 3.699949 -0.000026 -0.000160 -1.880486 -86.872206 -20.607722 2.949954 -0.000032 -0.000044 0.213037 -74.584518 -28.838927 2.952882 -0.000032 0.000067 -0.000002 -0.000001 -0.000000 9.104672 -0.042792 -1.864993 -142.911859 -164.339501 -96.964057 3.150082 0.000338 0.000064 25.929495 9.400883 79.338617 2.949805 -0.000083 0.000077 -11.190899 -48.989501 -49.069476 2.644319 0.000025 0.000057 -0.000003 -0.000002 0.000006 8.077940 -0.486671 -3.806209 31.704232 -13.781323 -282.873760 3.600036 0.000094 0.014767 2.021819 -12.940248 -327.489457 2.100053 0.000038 0.007706 -0.210910 -1.949294 14.711642 2.125492 -0.000012 0.007512 0.000000 0.000001 -0.000002 -8.207786 -6.751667 -1.599560 -0.077001 -0.000003 0.000080 -0.000002 -44.370110 0.345938 0.153719 -0.000000 -0.000000 0.000000 -44.423679 -3.043532 -0.076700 0.000000 -0.000002 -0.000006 -8.728667 10.710559 -0.000009 -0.000000 -0.000000 -0.000001 -0.000679 9.278123 0.000000 -0.000000 -0.000000 8.207792 -6.751710 -1.599556 -0.074518 -0.000003 0.000081 -0.000002 -44.370014 0.346960 0.148822 0.000002 0.000000 -0.000001 -44.423664 -3.044403 -0.074314 0.000000 -0.000002 -0.000004 -8.728671 10.710558 0.000007 -0.000000 -0.000000 0.000000 -0.000680 9.278137 -0.000000 0.000000 -0.000001 
